<svg xmlns="http://www.w3.org/2000/svg" viewBox="0 0 480.21 187.81"><defs><style>.cls-1,.cls-2{font-size:65.93px;}.cls-1{fill:#ccc;font-family:Araboto-Light;font-weight:300;}.cls-2{fill:#f2f2f2;font-family:PoetsenOne-Regular, Poetsen One;}.cls-3{letter-spacing:0em;}.cls-4{fill:#29abe2;}.cls-5{fill:#e6e6e6;}</style></defs><g id="Layer_2" data-name="Layer 2"><g id="Layer_1-2" data-name="Layer 1"><text class="cls-1" transform="translate(203.41 93.7)">Anderson</text><text class="cls-2" transform="translate(229.04 136.76)"><tspan class="cls-3">L</tspan><tspan x="29.21" y="0">ontsi</tspan></text><circle class="cls-4" cx="406.41" cy="90.16" r="8.27"/><path class="cls-5" d="M93.91,0a93.91,93.91,0,1,0,93.9,93.91A93.9,93.9,0,0,0,93.91,0ZM64.65,67.68a5.34,5.34,0,0,1,1.93-2.24,6.2,6.2,0,0,1,1.36-.69,142.4,142.4,0,0,1-.26-16.06A21.5,21.5,0,0,1,68.37,45,21.45,21.45,0,0,1,77.86,33,26,26,0,0,1,83,30.46c10.79-3.92,25.09-1.78,32.75,6.49,3.12,3.38,5.08,7.86,5.5,13.77l-.35,14.58a4.06,4.06,0,0,1,3,3.07c.46,1.78,0,4.26-1.54,7.67l-.09.18-6.4,10.55c-2.46,4.07-5,8.14-8.32,11.27a18.89,18.89,0,0,1-13.56,5.39A18.42,18.42,0,0,1,81,98.26c-3.25-3-5.74-6.81-8.1-10.57l-5.62-8.93c-2.05-3.06-3.11-5.86-3.19-8.16A6.54,6.54,0,0,1,64.65,67.68Zm85.73,87.48H37.43c-4.36-.33-6.57-2.58-6.94-6.49L32,139c.42-5.52,2-9.87,4.49-13.2a18.72,18.72,0,0,1,6-5.09c7.24-4,26.67-5.22,33.24-11.13l10.05,29.56,5.06-17.54-2.48-2.72c-1.12-1.63-1.36-3-.74-4.28,1.34-2.65,4.11-2.16,6.7-2.16s6.08-.51,6.93,2.89a4.46,4.46,0,0,1-.87,3.55l-2.47,2.72,5,17.54,9.11-29.56c6.56,5.91,26,7.09,33.23,11.13a19,19,0,0,1,6,5.09c2.52,3.33,4.06,7.68,4.49,13.2l1.5,9.63C157,152.57,154.74,154.82,150.38,155.16Z"/><path class="cls-5" d="M70,77.06,75.58,86c2.25,3.58,4.61,7.23,7.55,9.92a15.39,15.39,0,0,0,10.77,4.33,15.85,15.85,0,0,0,11.4-4.53c3-2.84,5.41-6.72,7.77-10.6l6.32-10.42c1.18-2.7,1.61-4.49,1.35-5.56-.17-.63-.86-.94-2-1h-.77l-.89,0a1.91,1.91,0,0,1-.48,0,9.32,9.32,0,0,1-1.74-.09L117,58.48c-11.57-.14-19.49-2.15-28.85-8.14-3.07-2-4-4.21-7.08-4a10.48,10.48,0,0,0-5.83,3.16,15.06,15.06,0,0,0-3.34,6.59l1.22,11.3a9.38,9.38,0,0,1-1.93-.07,5.47,5.47,0,0,0-2.82.74,2.38,2.38,0,0,0-.82.94,3.46,3.46,0,0,0-.27,1.51c0,1.71,1,3.94,2.68,6.51Z"/></g></g></svg>